<svg xmlns="http://www.w3.org/2000/svg" width="375" viewBox="0 0 375 375" height="375" version="1.0"><path fill="#24A89B" d="M 121.933594 71.339844 L 154.933594 71.339844 L 154.933594 303.796875 L 121.933594 303.796875 L 121.933594 71.339844"/><path fill="#24A89B" d="M 133.578125 66.519531 L 270.078125 66.519531 L 270.078125 95.019531 L 133.578125 95.019531 L 133.578125 66.519531"/><path fill="#24A89B" d="M 121.9375 282.53125 L 238.929688 282.53125 L 238.929688 309.53125 L 121.9375 309.53125 L 121.9375 282.53125"/><g fill="#EEE"><g><g><path d="M 19.421875 -273.046875 L 19.421875 -68.359375 L 56.316406 -68.359375 L 56.316406 -130.113281 L 191.871094 -129.726562 L 191.871094 -161.1875 L 56.316406 -161.1875 L 56.316406 -241.972656 L 191.871094 -241.972656 L 191.871094 -273.046875 Z M 19.421875 -31.070312 L 19.421875 0 L 191.871094 0 L 191.871094 -31.070312 Z M 19.421875 -31.070312" transform="translate(86.39 324.17)"/></g></g></g><path d="M 238.878906 158.0625 L 281.628906 158.0625 L 281.628906 198.5625 L 238.878906 198.5625 L 238.878906 158.0625"/></svg>